<?xml version="1.0" standalone="no"?>
<svg xmlns:xlink="http://www.w3.org/1999/xlink" id="wave" style="transform:rotate(0deg); transition: 0.3s" viewBox="0 0 1440 490" version="1.1" xmlns="http://www.w3.org/2000/svg"><defs><linearGradient id="sw-gradient-0" x1="0" x2="0" y1="1" y2="0"><stop stop-color="rgba(20, 33, 50, 1)" offset="0%"/><stop stop-color="rgba(20, 33, 50, 1)" offset="100%"/></linearGradient></defs><path style="transform:translate(0, 0px); opacity:1" fill="url(#sw-gradient-0)" d="M0,441L40,441C80,441,160,441,240,367.5C320,294,400,147,480,138.8C560,131,640,261,720,310.3C800,359,880,327,960,326.7C1040,327,1120,359,1200,375.7C1280,392,1360,392,1440,351.2C1520,310,1600,229,1680,220.5C1760,212,1840,278,1920,302.2C2000,327,2080,310,2160,310.3C2240,310,2320,327,2400,326.7C2480,327,2560,310,2640,294C2720,278,2800,261,2880,269.5C2960,278,3040,310,3120,269.5C3200,229,3280,114,3360,65.3C3440,16,3520,33,3600,81.7C3680,131,3760,212,3840,236.8C3920,261,4000,229,4080,212.3C4160,196,4240,196,4320,163.3C4400,131,4480,65,4560,73.5C4640,82,4720,163,4800,204.2C4880,245,4960,245,5040,245C5120,245,5200,245,5280,253.2C5360,261,5440,278,5520,261.3C5600,245,5680,196,5720,171.5L5760,147L5760,490L5720,490C5680,490,5600,490,5520,490C5440,490,5360,490,5280,490C5200,490,5120,490,5040,490C4960,490,4880,490,4800,490C4720,490,4640,490,4560,490C4480,490,4400,490,4320,490C4240,490,4160,490,4080,490C4000,490,3920,490,3840,490C3760,490,3680,490,3600,490C3520,490,3440,490,3360,490C3280,490,3200,490,3120,490C3040,490,2960,490,2880,490C2800,490,2720,490,2640,490C2560,490,2480,490,2400,490C2320,490,2240,490,2160,490C2080,490,2000,490,1920,490C1840,490,1760,490,1680,490C1600,490,1520,490,1440,490C1360,490,1280,490,1200,490C1120,490,1040,490,960,490C880,490,800,490,720,490C640,490,560,490,480,490C400,490,320,490,240,490C160,490,80,490,40,490L0,490Z"/></svg>