<?xml version="1.0" standalone="no"?>
<svg xmlns:xlink="http://www.w3.org/1999/xlink" id="wave" style="transform:rotate(0deg); transition: 0.3s" viewBox="0 0 1440 490" version="1.1" xmlns="http://www.w3.org/2000/svg"><defs><linearGradient id="sw-gradient-0" x1="0" x2="0" y1="1" y2="0"><stop stop-color="rgba(195.89, 255, 239.981, 1)" offset="0%"/><stop stop-color="rgba(131.7, 242.833, 225.891, 1)" offset="100%"/></linearGradient></defs><path style="transform:translate(0, 0px); opacity:1" fill="url(#sw-gradient-0)" d="M0,196L48,220.5C96,245,192,294,288,294C384,294,480,245,576,261.3C672,278,768,359,864,359.3C960,359,1056,278,1152,212.3C1248,147,1344,98,1440,89.8C1536,82,1632,114,1728,114.3C1824,114,1920,82,2016,65.3C2112,49,2208,49,2304,81.7C2400,114,2496,180,2592,171.5C2688,163,2784,82,2880,106.2C2976,131,3072,261,3168,302.2C3264,343,3360,294,3456,277.7C3552,261,3648,278,3744,253.2C3840,229,3936,163,4032,155.2C4128,147,4224,196,4320,187.8C4416,180,4512,114,4608,73.5C4704,33,4800,16,4896,73.5C4992,131,5088,261,5184,334.8C5280,408,5376,425,5472,359.3C5568,294,5664,147,5760,98C5856,49,5952,98,6048,147C6144,196,6240,245,6336,269.5C6432,294,6528,294,6624,294C6720,294,6816,294,6864,294L6912,294L6912,490L6864,490C6816,490,6720,490,6624,490C6528,490,6432,490,6336,490C6240,490,6144,490,6048,490C5952,490,5856,490,5760,490C5664,490,5568,490,5472,490C5376,490,5280,490,5184,490C5088,490,4992,490,4896,490C4800,490,4704,490,4608,490C4512,490,4416,490,4320,490C4224,490,4128,490,4032,490C3936,490,3840,490,3744,490C3648,490,3552,490,3456,490C3360,490,3264,490,3168,490C3072,490,2976,490,2880,490C2784,490,2688,490,2592,490C2496,490,2400,490,2304,490C2208,490,2112,490,2016,490C1920,490,1824,490,1728,490C1632,490,1536,490,1440,490C1344,490,1248,490,1152,490C1056,490,960,490,864,490C768,490,672,490,576,490C480,490,384,490,288,490C192,490,96,490,48,490L0,490Z"/></svg>
