<svg xmlns="http://www.w3.org/2000/svg" viewBox="0 0 96 96" id="discount"><path fill="#ff3f8a" d="M63.81,6.21,86,55.8a3.83,3.83,0,0,1-3.77,5.39c-11-.84-18.17-1.64-29.68,0-12.19,1.75-11.72,2-30.19,10.23a6.45,6.45,0,0,1-8.53-3.25L6.43,51.7A6.47,6.47,0,0,1,9.7,43.16c17.49-7.81,18-7.41,27.78-15.63C46.37,20.07,50.72,14,57.29,5.44A3.82,3.82,0,0,1,63.81,6.21Z" class="colorff7d3f svgShape"></path><path fill="#ff4e93" d="M63.81,6.21l17,38.13a3.82,3.82,0,0,1-3.77,5.38c-11-.84-18.17-1.64-29.67,0l-.52.07a4.33,4.33,0,0,1-4.59-2.53L35.42,31.91a2.82,2.82,0,0,1,.77-3.31c10-8.33,13.17-12.83,21.1-23.16A3.82,3.82,0,0,1,63.81,6.21Z" class="colorffba4e svgShape"></path><path fill="#ff67a2" d="M45.26 27.27c-2.37 2.25-4.47 4-6.15 5.41a2 2 0 00-.55 2.41L39.39 37a2.12 2.12 0 002.82 1.28l7.11-3.17A1.57 1.57 0 0050.11 33l-2.33-5.22A1.57 1.57 0 0045.26 27.27zM49.8 23.77l3.61 8.11a1.24 1.24 0 001.64.62l2-.87A1.25 1.25 0 0057.63 30l-4-9a1.23 1.23 0 00-2-.32c-.52.6-1 1.17-1.55 1.73A1.21 1.21 0 0049.8 23.77z" class="colorffdd67 svgShape"></path><path fill="#ffffff" d="M47.54,27.21l.4.9a1.16,1.16,0,0,1-.25,1.3c-2.82,2.74-5.29,4.83-7.21,6.43a1.14,1.14,0,0,1-1.78-.41l-.43-1a1.16,1.16,0,0,1,.32-1.36c1.85-1.53,4.3-3.57,7.11-6.26A1.14,1.14,0,0,1,47.54,27.21Z" class="colorffffff svgShape"></path><path fill="#ee649a" d="M26.18,35.64,38.92,64.17c-2.29.81-2.21.83-16.61,7.25a6.45,6.45,0,0,1-8.53-3.25L6.43,51.7A6.49,6.49,0,0,1,9.7,43.16C24.29,36.65,24.06,36.8,26.18,35.64Z" class="color64a6ee svgShape"></path><path fill="#ff87b6" d="M10,43a6.45,6.45,0,0,0-3.4,3l3.74,8.4a3.84,3.84,0,0,0,2.68,2.21,1.77,1.77,0,0,0,2-2.45Z" class="color87ceff svgShape"></path><rect width="4.34" height="3.42" x="7.73" y="46.31" fill="#ffffff" rx="1.03" transform="rotate(-24.06 9.908 48.004)" class="colorffffff svgShape"></rect><path fill="#ee649a" d="M16.55,56l3.77-1.68C18.9,55,16.88,55.85,16.56,56Z" class="color64a6ee svgShape"></path><path fill="#df4b85" d="M34,53.14l4.92,11c-2.29.81-2.21.83-16.61,7.25a6.45,6.45,0,0,1-8.53-3.25l-4.93-11a6.47,6.47,0,0,0,8.54,3.25C32,53.88,31.72,54,34,53.14Z" class="color4b79df svgShape"></path><rect width="7.17" height="36.87" x="32.24" y="30.01" fill="#5b2d3f" rx="1.77" transform="rotate(-24.06 35.813 48.447)" class="color352d5b svgShape"></rect><rect width="7.17" height="30.1" x="30.86" y="30.31" fill="#6a3f50" rx="1.77" transform="rotate(-24.06 34.436 45.357)" class="color3f416a svgShape"></rect><rect width="3.14" height="11.16" x="30.6" y="34.68" fill="#97536e" rx=".78" transform="rotate(-24.06 32.162 40.261)" class="color536997 svgShape"></rect><rect width="3.14" height="4.77" x="30.51" y="37.67" fill="#c9628a" rx=".78" transform="rotate(-24.06 32.084 40.049)" class="color6291c9 svgShape"></rect><rect width="8.17" height="30.95" x="18" y="39.1" fill="#e48cae" transform="rotate(-24.5 21.587 54.324)" class="color8c97e4 svgShape"></rect><rect width="8.17" height="19.02" x="15.57" y="39.62" fill="#f8e1ea" transform="rotate(-24.06 19.652 49.124)" class="colore1e7f8 svgShape"></rect><path fill="#ff3f8a" d="M6.43,51.7l7.35,16.47-7.2.07A2.31,2.31,0,0,1,4.4,66.85l-3.26-7.3A2.35,2.35,0,0,1,1.56,57Z" class="colorff7d3f svgShape"></path><path fill="#ff4e93" d="M4.67,53.61,1.56,57a2.35,2.35,0,0,0-.42,2.56l.7,1.58A2.36,2.36,0,0,0,4,62.52l1.56,0a2,2,0,0,0,1.8-2.8Z" class="colorffba4e svgShape"></path><rect width="7.17" height="7.07" x="33.68" y="48.14" fill="#b64e77" transform="rotate(-24.06 37.26 51.674)" class="color4e5fb6 svgShape"></rect><rect width="7.17" height="3.77" x="33.01" y="48.28" fill="#cf6790" transform="rotate(-24.06 36.601 50.16)" class="color6782cf svgShape"></rect><path fill="#ff2379" d="M81.32,35.87l-3.06,2.69-6.74-15.1,4-.49a3.23,3.23,0,0,1,3.31,1.88l3.26,7.31A3.21,3.21,0,0,1,81.32,35.87Z" class="colorff2353 svgShape"></path><path fill="#6a3f50" d="M24,68H37.46a0,0,0,0,1,0,0v5.27A1.46,1.46,0,0,1,36,74.71H25.5A1.46,1.46,0,0,1,24,73.25V68a0,0,0,0,1,0,0Z" transform="rotate(-24.5 30.093 71.02)" class="color3f416a svgShape"></path><rect width="13.41" height="3.02" x="23.29" y="68.14" fill="#563240" transform="rotate(-24.06 29.995 69.65)" class="color3a3256 svgShape"></rect><path fill="#b64e77" d="M49.52,86.2a4.13,4.13,0,0,1-5.33,5.52A31.12,31.12,0,0,1,28.48,76.07L36,72.69A22.86,22.86,0,0,0,47.5,84.2,4,4,0,0,1,49.52,86.2Z" class="color4e5fb6 svgShape"></path><path fill="#f8e1ea" d="M49.52,86.2a4.13,4.13,0,0,1-5.33,5.52A31.12,31.12,0,0,1,28.48,76.07L36,72.69A22.86,22.86,0,0,0,47.5,84.2,4,4,0,0,1,49.52,86.2Z" class="colore1e7f8 svgShape"></path><path fill="#f8c8db" d="M47.53,84.21a1.93,1.93,0,0,1-.51,3.6,3.87,3.87,0,0,1-2.4-.27,30.84,30.84,0,0,1-14-12.43L36,72.69A22.81,22.81,0,0,0,47.53,84.21Z" class="colorc8cef8 svgShape"></path><rect width="5.16" height="16.53" x="67.65" y="24.82" fill="#ff6ca5" rx="1.27" transform="rotate(-24.06 70.213 33.089)" class="colorffd36c svgShape"></rect><path fill="#ff87b6" d="M24.23,36.66h3.16a0,0,0,0,1,0,0V50.53a.66.66,0,0,1-.66.66H24.89a.66.66,0,0,1-.66-.66V36.66A0,0,0,0,1,24.23,36.66Z" transform="rotate(-24.06 25.816 43.913)" class="color87ceff svgShape"></path><path fill="#ffffff" d="M24,39.67h1.65a.76.76,0,0,1,.76.76v2.76a.66.66,0,0,1-.66.66H23.93a.66.66,0,0,1-.66-.66V40.43A.76.76,0,0,1,24,39.67Z" transform="rotate(-24.06 24.85 41.77)" class="colorffffff svgShape"></path><polygon fill="#a90042" points="94.88 61.34 89.41 65.52 92.06 71.87 85.23 72.75 84.36 79.57 78 76.92 73.83 82.39 69.65 76.92 63.3 79.57 62.42 72.74 55.59 71.87 58.24 65.52 52.77 61.34 58.24 57.16 55.59 50.81 62.42 49.93 63.3 43.1 69.65 45.75 73.83 40.28 78 45.75 84.36 43.1 85.23 49.93 92.06 50.81 89.41 57.16 94.88 61.34" class="color00a98c svgShape"></polygon><path fill="#c7145a" d="M61.22,59.92H86.43l-1.5-1.15a.65.65,0,0,1-.2-.77L86,54.89a.64.64,0,0,0-.51-.89l-3.35-.43A.64.64,0,0,1,81.6,53l-.43-3.35a.66.66,0,0,0-.9-.52l-3.11,1.3a.64.64,0,0,1-.76-.21l-2.06-2.68a.65.65,0,0,0-1,0l-2,2.68a.65.65,0,0,1-.77.21l-3.11-1.3a.65.65,0,0,0-.89.52L66.06,53a.66.66,0,0,1-.56.56L62.15,54a.64.64,0,0,0-.52.89L62.93,58a.65.65,0,0,1-.21.77Z" class="color14c7aa svgShape"></path><path fill="#3d2d33" d="M95.61,60.54l-4.86-3.71,2.35-5.64a1,1,0,0,0-.79-1.37L86.25,49,85.47,43a1,1,0,0,0-1.38-.8l-2.61,1.09-2-4.5L82,36.56A4.2,4.2,0,0,0,83,31.69l-3.28-7.3a4.18,4.18,0,0,0-4.34-2.45l-3.32.4L64.65,5.79a4.82,4.82,0,0,0-8.23-1C50,13.27,45.78,19.25,36.81,26.8c-1.54,1.3-3.34,2.84-4.35,3.62a2.76,2.76,0,0,0-2.9-.4l-3.33,1.49a2.76,2.76,0,0,0-1.34,3.76c-1.61.85-1.07.57-15.58,7.08a7.46,7.46,0,0,0-4,9.23L.88,56.44A3.36,3.36,0,0,0,.3,60.08l3.27,7.29a3.35,3.35,0,0,0,3.11,2l6.6-.1a7.45,7.45,0,0,0,9.56,3.14l1.75,3.89a2.46,2.46,0,0,0,2.24,1.45,2.67,2.67,0,0,0,1.26-.33A31.94,31.94,0,0,0,43.91,92.63a5.06,5.06,0,0,0,6.9-3.34c-1.25-.43-1.28-.43,0,0a5,5,0,0,0-2.8-6,21.8,21.8,0,0,1-10.6-10.07A2.46,2.46,0,0,0,38.64,70L36.9,66.1c.52-.22,1-.44,1.55-.64A2.76,2.76,0,0,0,42.15,67l3.33-1.49A2.76,2.76,0,0,0,47.11,63c1.21-.23,2.26-.37,5.29-.82l4.74,3.63-2.35,5.64a1,1,0,0,0,.79,1.38l6.07.78.77,6.06a1,1,0,0,0,1.38.8l5.64-2.36L73.15,83a1,1,0,0,0,1.59,0l3.71-4.86,5.64,2.36a1,1,0,0,0,1.38-.8l.78-6.06,6.06-.78a1,1,0,0,0,.79-1.38l-2.35-5.64,4.86-3.71A1,1,0,0,0,95.61,60.54Zm-20-36.62a2.19,2.19,0,0,1,2.27,1.29l3.28,7.3a2.18,2.18,0,0,1-.55,2.55l-2,1.8L72.94,24.25ZM35.17,30.8C42.75,24.41,46.86,20.63,53,12.62l2.33,5.18A1,1,0,1,0,57.13,17l-2.77-6.17L58,6.05a2.83,2.83,0,0,1,4.83.56L79.64,44l-1.19.49-3.71-4.85a1,1,0,0,0-1.59,0l-3.67,4.79L60.07,23.52a1,1,0,0,0-1.82.82l8.57,19.1-3-1.26a1,1,0,0,0-1.38.8L61.65,49l-6.07.78a1,1,0,0,0-.79,1.37l.81,2c-4.09.32-9.48,1.13-11.91,1.59L33.53,32.12C34.09,31.69,34.63,31.25,35.17,30.8ZM33.91,50.46l4.71-2.12L40.7,53,36,55.08ZM27.05,33.34c3.65-1.64,3.4-1.55,3.55-1.55a.74.74,0,0,1,.78.44L37.8,46.52l-4.71,2.11C26.68,34.36,26.66,34.4,26.66,34.3A.74.74,0,0,1,27.05,33.34Zm-8,6.85,1.75,3.9-5.62,2.53-1.76-3.91Zm6.23,28.92-1.75-3.9,5.62-2.53,1.76,3.9Zm-2.57-5.73L21,59.62l5.62-2.53,1.69,3.77Zm-2.51-5.59L18.48,54,24.1,51.5l1.69,3.77Zm-2.51-5.58L16,48.44l5.62-2.52,1.69,3.76Zm-11,15.14a1.36,1.36,0,0,1-1.26-.8L2.12,59.26a1.35,1.35,0,0,1,.24-1.47L6.19,53.6l6.14,13.67Zm8.13.48L7.39,51.39a5.4,5.4,0,0,1-.12-4.17c.9-2.37,2.67-2.95,4.3-3.69l11.86,26.4L22,70.58A5.46,5.46,0,0,1,14.78,67.83Zm11.63,7.63-1.75-3.89c21.85-9.81,1-.44,10.41-4.68l1.75,3.9a.45.45,0,0,1-.23.6L27,75.69A.47.47,0,0,1,26.41,75.46Zm20.8,9.65a3.11,3.11,0,0,1-2.49,5.69A30,30,0,0,1,29.91,76.6L35.58,74A23.8,23.8,0,0,0,47.21,85.11ZM32.7,65.76C9.4,13.89,29.06,57.67,20.84,39.37c2.55-1.15,3.41-1.51,4.87-2.28L37.63,63.64C36.21,64.18,35,64.75,32.7,65.76Zm12-2.13-3.33,1.5a.75.75,0,0,1-1-.35c-.1-.1-1.38-3.05-3.54-7.87l4.71-2.12L45,62.63A.75.75,0,0,1,44.66,63.63Zm1.89-2.53-2-4.49c3-.54,8-1.25,11.88-1.53l.73,1.75-4.33,3.32C52.71,60.16,48.55,60.72,46.55,61.1Zm42.37,3.62a1,1,0,0,0-.31,1.18L90.75,71l-5.52.71a1,1,0,0,0-.87.87l-.71,5.52L78.51,76a1,1,0,0,0-1.18.32L74,80.74l-3.39-4.42a1,1,0,0,0-.79-.4c-.28,0,0-.08-5.53,2.22l-.71-5.52a1,1,0,0,0-.86-.87L57.14,71l2.14-5.14A1,1,0,0,0,59,64.72c-4.35-3.33-3.56-2.72-4.43-3.38L59,58a1,1,0,0,0,.31-1.18c-.91-2.19-.66-1.58-1.14-2.73,1.56-.19,1.42-.15,0-.07-.5-1.22-.29-.7-1-2.34l5.53-.71a1,1,0,0,0,.86-.86l.71-5.53,5.14,2.14a1,1,0,0,0,1.18-.31L74,41.93l3.38,4.43a1,1,0,0,0,1.18.31l5.14-2.14c.76,5.9.61,4.78.71,5.53a1,1,0,0,0,.51.75c.22.12-.2,0,5.88.82l-2.14,5.15A1,1,0,0,0,88.93,58l4.42,3.38Z" class="color302d3d svgShape"></path><path fill="#3d2d33" d="M77 64.35a3.39 3.39 0 104.8 0A3.39 3.39 0 0077 64.35zm3.39 3.39a1.4 1.4 0 11-1-2.39A1.4 1.4 0 0180.35 67.74zM70.94 53.52a3.4 3.4 0 10-2.41 5.8A3.42 3.42 0 0070.94 53.52zm-3.39 1.42a1.39 1.39 0 110 2A1.38 1.38 0 0167.55 54.94zM80.66 54.63a1 1 0 00-1.42 0l-12 12a1 1 0 00.7 1.71 1 1 0 00.71-.29l12-12A1 1 0 0080.66 54.63z" class="color302d3d svgShape"></path></svg>