<svg xmlns="http://www.w3.org/2000/svg" viewBox="0 0 64 64" id="discount"><path d="M61.5913 44.5773L43.561 7.9386a4.0027 4.0027 0 0 0-4.1221-2.2L27.4957 7.3654 39.813 11.4738a5.9623 5.9623 0 0 1 4.1006 5.6855V57.733l15.8515-7.7963A4.0094 4.0094 0 0 0 61.5913 44.5773zM22.9119 20.9992a2 2 0 0 0 0-4 1.8508 1.8508 0 0 0-.67.12l1.38 1.1a.9817.9817 0 0 1 .16 1.4.9991.9991 0 0 1-.78.38.9614.9614 0 0 1-.62-.22l-1.43-1.15a1.5 1.5 0 0 0-.04.37A2.0059 2.0059 0 0 0 22.9119 20.9992z" fill="#ff7427" class="color000000 svgShape"></path><path d="M39.1819,13.3692l-15.95-5.32a.9711.9711,0,0,0-.63,0l-8.25,2.75,6.21,4.97a3.9156,3.9156,0,0,1,2.35-.77,4.0151,4.0151,0,1,1-3.62,2.31l-7.19-5.76-5.45,1.82a3.9777,3.9777,0,0,0-2.74,3.79v40.84a4.0054,4.0054,0,0,0,4,4h30a3.9626,3.9626,0,0,0,3.99-3.79,1.8921,1.8921,0,0,0,.01-.21v-40.84A3.9817,3.9817,0,0,0,39.1819,13.3692Zm-25.87,18.03a4.7681,4.7681,0,1,1-1.4,3.37A4.78,4.78,0,0,1,13.3119,31.3991Zm.71,19.49a.9822.9822,0,0,1-.71-.29.9957.9957,0,0,1,0-1.41l17.79-17.79a.9971.9971,0,1,1,1.41,1.41l-17.79,17.79A.96.96,0,0,1,14.022,50.8892Zm18.49-.29a4.7681,4.7681,0,1,1,1.4-3.37A4.7027,4.7027,0,0,1,32.5119,50.5991Z" fill="#ff7427" class="color000000 svgShape"></path><path d="M29.142 44.4492a2.7789 2.7789 0 1 0 2.77 2.78 2.8015 2.8015 0 0 0-.81-1.97A2.7628 2.7628 0 0 0 29.142 44.4492zM18.652 36.7391a2.7883 2.7883 0 0 0 0-3.93 2.7751 2.7751 0 0 0-4.74 1.96 2.7751 2.7751 0 0 0 4.74 1.97zM3.6219 2.2191a.9964.9964 0 0 0-1.24 1.56l9.72 7.77 2.25-.75z" fill="#ff7427" class="color000000 svgShape"></path></svg>